<!--?xml version="1.0" encoding="utf-8"?-->
<!-- Generator: Adobe Illustrator 18.1.1, SVG Export Plug-In . SVG Version: 6.00 Build 0)  -->

<svg version="1.1" id="_x32_" xmlns="http://www.w3.org/2000/svg" xmlns:xlink="http://www.w3.org/1999/xlink" x="0px" y="0px" viewBox="0 0 512 512" style="width: 256px; height: 256px; opacity: 1;" xml:space="preserve">
<style type="text/css">
	.st0{fill:#4B4B4B;}
</style>
<g>
	<path class="st0" d="M62.956,398.442h392.077c13.193,0,23.984-10.792,23.984-23.978V98.563c0-13.193-10.792-23.977-23.984-23.977
		H62.956c-13.207,0-23.985,10.784-23.985,23.977v275.901C38.971,387.65,49.749,398.442,62.956,398.442z M70.146,105.753h377.698
		v261.508H70.146V105.753z" style="fill: rgb(75, 75, 75);"></path>
	<path class="st0" d="M0,412.228v5.996c0,10.552,8.63,19.19,19.182,19.19h473.622c10.565,0,19.196-8.638,19.196-19.19v-5.996H0z" style="fill: rgb(75, 75, 75);"></path>
	<path class="st0" d="M344.828,239.675l8.136-0.262c-0.819-26.237-12.02-49.777-29.507-66.685
		c-17.477-16.908-41.338-27.29-67.41-27.282c-1.031,0-2.062,0.014-3.097,0.042h0.004c-26.234,0.82-49.777,12.028-66.685,29.522
		c-16.912,17.466-27.29,41.331-27.29,67.406c0,1.024,0.017,2.062,0.049,3.086c0.823,26.238,12.028,49.777,29.515,66.685
		c17.476,16.908,41.334,27.29,67.406,27.29c1.02,0,2.055-0.014,3.093-0.05c26.234-0.819,49.781-12.028,66.688-29.522
		c16.908-17.465,27.29-41.331,27.29-67.398c0-1.024-0.014-2.055-0.056-3.087L344.828,239.675z M197.986,186.331
		c7.44-7.684,16.4-13.892,26.404-18.151c-4.156,5.982-7.709,13.044-10.633,20.955h-18.359
		C196.238,188.181,197.1,187.242,197.986,186.331z M187.668,199.503h22.78c-3.14,11.456-5.054,24.225-5.446,37.77h-29.546
		C176.324,223.48,180.676,210.605,187.668,199.503z M187.649,285.412c-6.956-11.032-11.296-23.893-12.182-37.771h29.571
		c0.399,13.539,2.256,26.329,5.392,37.771H187.649z M199.872,300.469c-1.554-1.497-3.027-3.072-4.454-4.689h18.356
		c1.558,4.209,3.256,8.214,5.152,11.9c1.674,3.228,3.475,6.25,5.403,9.033C215.212,312.815,206.93,307.292,199.872,300.469z
		 M250.818,322.999c-2.249-0.141-4.474-0.36-6.671-0.685c-0.91-0.593-1.822-1.243-2.733-1.985
		c-6.212-5.043-12.045-13.574-16.562-24.549h25.966V322.999z M250.818,285.412H221.2c-3.333-11.145-5.41-24.013-5.83-37.771h35.448
		V285.412z M250.818,237.273h-35.416c0.424-13.765,2.507-26.612,5.84-37.77h29.575V237.273z M250.818,189.135h-25.934
		c1.024-2.486,2.101-4.908,3.256-7.134c3.902-7.57,8.489-13.51,13.274-17.416c0.893-0.727,1.794-1.362,2.691-1.949
		c2.207-0.332,4.449-0.565,6.713-0.706V189.135z M312.128,184.445c1.554,1.498,3.023,3.08,4.45,4.69h-18.352
		c-1.554-4.202-3.256-8.207-5.156-11.894c-1.67-3.227-3.471-6.25-5.403-9.04C296.785,172.099,305.069,177.623,312.128,184.445z
		 M261.186,161.923c2.242,0.134,4.471,0.36,6.664,0.678c0.915,0.6,1.829,1.243,2.74,1.984c6.208,5.058,12.045,13.582,16.558,24.55
		h-25.962V161.923z M261.186,199.503h29.617c3.33,11.152,5.407,24.013,5.83,37.77h-35.447V199.503z M261.186,247.641h35.412
		c-0.42,13.772-2.511,26.626-5.841,37.771h-29.571V247.641z M283.863,302.92c-3.902,7.571-8.493,13.51-13.274,17.409
		c-0.893,0.735-1.79,1.363-2.687,1.956c-2.207,0.325-4.453,0.558-6.716,0.706V295.78h25.934
		C286.091,298.28,285.018,300.689,283.863,302.92z M314.006,298.584c-7.433,7.69-16.388,13.892-26.389,18.15
		c4.153-5.982,7.698-13.045,10.626-20.954h18.363C315.758,296.733,314.897,297.673,314.006,298.584z M324.332,285.412h-22.784
		c3.142-11.442,5.057-24.211,5.449-37.771h29.539C335.675,261.441,331.324,274.317,324.332,285.412z M306.962,237.273
		c-0.396-13.538-2.253-26.329-5.389-37.77h22.773c6.964,11.046,11.3,23.9,12.19,37.77H306.962z" style="fill: rgb(75, 75, 75);"></path>
</g>
</svg>
